<svg width="24" height="24" viewBox="0 0 24 24" fill="none" xmlns="http://www.w3.org/2000/svg">
    <path d="M1 0C0.447715 0 0 0.447715 0 1C0 1.55228 0.447715 2 1 2V0ZM5 1L5.98055 0.803743C5.88701 0.336385 5.47663 0 5 0V1ZM7.68 14.39L8.66084 14.1952L8.66055 14.1937L7.68 14.39ZM9.68 16V15C9.67361 15 9.66723 15.0001 9.66084 15.0002L9.68 16ZM19.4 16L19.4192 15.0002C19.4128 15.0001 19.4064 15 19.4 15L19.4 16ZM21.4 14.39L22.3809 14.5848L22.3823 14.5773L21.4 14.39ZM23 6L23.9823 6.18733C24.0381 5.89458 23.9605 5.59218 23.7705 5.36255C23.5805 5.13293 23.298 5 23 5V6ZM6 5C5.44772 5 5 5.44772 5 6C5 6.55228 5.44772 7 6 7V5ZM9 21V23C10.1046 23 11 22.1046 11 21H9ZM9 21H7C7 22.1046 7.89543 23 9 23V21ZM9 21V19C7.89543 19 7 19.8954 7 21H9ZM9 21H11C11 19.8954 10.1046 19 9 19V21ZM20 21V23C21.1046 23 22 22.1046 22 21H20ZM20 21H18C18 22.1046 18.8954 23 20 23V21ZM20 21V19C18.8954 19 18 19.8954 18 21H20ZM20 21H22C22 19.8954 21.1046 19 20 19V21ZM1 2H5V0H1V2ZM4.01945 1.19626L6.69945 14.5863L8.66055 14.1937L5.98055 0.803743L4.01945 1.19626ZM6.69916 14.5848C6.83633 15.2754 7.21202 15.8958 7.76048 16.3373L9.01461 14.7793C8.83179 14.6322 8.70656 14.4254 8.66084 14.1952L6.69916 14.5848ZM7.76048 16.3373C8.30894 16.7788 8.99521 17.0133 9.69916 16.9998L9.66084 15.0002C9.42619 15.0047 9.19743 14.9265 9.01461 14.7793L7.76048 16.3373ZM9.68 17H19.4V15H9.68V17ZM19.3808 16.9998C20.0848 17.0133 20.7711 16.7788 21.3195 16.3373L20.0654 14.7793C19.8826 14.9265 19.6538 15.0047 19.4192 15.0002L19.3808 16.9998ZM21.3195 16.3373C21.868 15.8958 22.2437 15.2754 22.3808 14.5848L20.4192 14.1952C20.3734 14.4254 20.2482 14.6322 20.0654 14.7793L21.3195 16.3373ZM22.3823 14.5773L23.9823 6.18733L22.0177 5.81267L20.4177 14.2027L22.3823 14.5773ZM23 5H6V7H23V5Z"
          fill="black"/>
</svg>
