<svg width="23" height="21" viewBox="0 0 23 21" fill="none" xmlns="http://www.w3.org/2000/svg">
    <path d="M16.3527 11.2593C16.2027 11.1093 15.9992 11.025 15.787 11.025L15.783 11.024C15.5708 11.024 15.3673 11.1083 15.2173 11.2583C15.0673 11.4083 14.983 11.6118 14.983 11.824C14.983 12.0362 15.0673 12.2397 15.2173 12.3897C15.3673 12.5397 15.5708 12.624 15.783 12.624C16.2047 12.6218 16.6129 12.7728 16.9316 13.049C17.2503 13.3251 17.4579 13.7077 17.5157 14.1254C17.5735 14.5431 17.4776 14.9676 17.2459 15.32C17.0142 15.6724 16.6625 15.9286 16.256 16.041V16.298C16.2504 16.4196 16.1982 16.5343 16.1102 16.6183C16.0222 16.7024 15.9052 16.7493 15.7835 16.7493C15.6618 16.7493 15.5448 16.7024 15.4568 16.6183C15.3688 16.5343 15.3166 16.4196 15.311 16.298V16.042C14.9459 15.9397 14.6242 15.7211 14.3946 15.4193C14.165 15.1176 14.0402 14.7492 14.039 14.37C14.0361 14.3061 14.0461 14.2423 14.0685 14.1824C14.0909 14.1225 14.1253 14.0678 14.1694 14.0216C14.2136 13.9753 14.2667 13.9385 14.3255 13.9134C14.3843 13.8882 14.4476 13.8753 14.5115 13.8753C14.5754 13.8753 14.6387 13.8882 14.6975 13.9134C14.7563 13.9385 14.8094 13.9753 14.8536 14.0216C14.8977 14.0678 14.9321 14.1225 14.9545 14.1824C14.9769 14.2423 14.9869 14.3061 14.984 14.37C14.984 14.5282 15.0309 14.6829 15.1188 14.8145C15.2067 14.946 15.3317 15.0485 15.4779 15.1091C15.624 15.1696 15.7849 15.1855 15.9401 15.1546C16.0953 15.1238 16.2378 15.0476 16.3497 14.9357C16.4616 14.8238 16.5378 14.6813 16.5686 14.5261C16.5995 14.3709 16.5837 14.21 16.5231 14.0638C16.4626 13.9177 16.36 13.7927 16.2285 13.7048C16.0969 13.6169 15.9422 13.57 15.784 13.57C15.3623 13.5722 14.9541 13.4212 14.6354 13.145C14.3167 12.8689 14.1091 12.4863 14.0513 12.0686C13.9935 11.6509 14.0894 11.2264 14.3211 10.874C14.5528 10.5216 14.9045 10.2654 15.311 10.153V9.897C15.3166 9.77544 15.3688 9.66072 15.4568 9.57668C15.5448 9.49263 15.6618 9.44574 15.7835 9.44574C15.9052 9.44574 16.0222 9.49263 16.1102 9.57668C16.1982 9.66072 16.2504 9.77544 16.256 9.897V10.153C16.6218 10.2546 16.9445 10.4729 17.1748 10.7747C17.4052 11.0765 17.5306 11.4453 17.532 11.825C17.5349 11.8889 17.5249 11.9527 17.5025 12.0126C17.4801 12.0725 17.4457 12.1272 17.4016 12.1734C17.3574 12.2197 17.3043 12.2565 17.2455 12.2816C17.1867 12.3068 17.1234 12.3197 17.0595 12.3197C16.9956 12.3197 16.9323 12.3068 16.8735 12.2816C16.8147 12.2565 16.7616 12.2197 16.7174 12.1734C16.6733 12.1272 16.6389 12.0725 16.6165 12.0126C16.5941 11.9527 16.5841 11.8889 16.587 11.825C16.587 11.6128 16.5027 11.4093 16.3527 11.2593Z"
          fill="black"/>
    <path fill-rule="evenodd" clip-rule="evenodd"
          d="M22.1447 10.0244C22.6057 10.9825 22.8435 12.0327 22.84 13.096C22.8408 14.8813 22.1643 16.6004 20.9469 17.9063C19.7296 19.2122 18.0621 20.0077 16.2812 20.1321C14.5002 20.2564 12.7384 19.7005 11.3513 18.5765C9.96431 17.4525 9.05537 15.8441 8.808 14.076C7.42359 14.3996 5.97369 14.2971 4.64856 13.782C3.32342 13.2669 2.18495 12.3633 1.38254 11.1896C0.58012 10.016 0.151238 8.62718 0.152166 7.20545C0.153097 5.78372 0.583795 4.39549 1.38775 3.22289C2.1917 2.0503 3.33135 1.14814 4.65715 0.634771C5.98296 0.121406 7.43299 0.0208253 8.81698 0.346226C10.201 0.671627 11.4543 1.40781 12.4124 2.45817C13.3706 3.50854 13.9888 4.82402 14.186 6.232C15.2206 5.98655 16.2973 5.97894 17.3352 6.20974C18.3731 6.44054 19.3452 6.90374 20.1783 7.56448C21.0113 8.22522 21.6836 9.06629 22.1447 10.0244ZM9.31142 9.66913C9.35222 9.71621 9.38334 9.77087 9.403 9.83C9.43437 9.93176 9.42978 10.0412 9.39 10.14C10.1638 8.47577 11.5534 7.17688 13.266 6.517C13.1328 5.34519 12.6634 4.23697 11.9143 3.32608C11.1652 2.41519 10.1685 1.74055 9.04442 1.3836C7.92039 1.02664 6.71707 1.00261 5.57969 1.31442C4.4423 1.62622 3.41946 2.26053 2.6346 3.14079C1.84974 4.02106 1.33641 5.10965 1.15656 6.27521C0.976702 7.44076 1.13801 8.63346 1.62102 9.70937C2.10402 10.7853 2.88808 11.6984 3.87857 12.3386C4.86906 12.9787 6.02365 13.3185 7.203 13.317C7.71947 13.3163 8.23371 13.2491 8.733 13.117V13.095C8.73333 12.1059 8.94328 11.1281 9.349 10.226C9.29303 10.3195 9.20594 10.3903 9.103 10.426C8.26707 10.7035 7.35578 10.6435 6.5635 10.2586C5.77121 9.87378 5.16064 9.19463 4.862 8.366H4.386C4.26445 8.3604 4.14972 8.30818 4.06568 8.22018C3.98164 8.13218 3.93474 8.01518 3.93474 7.8935C3.93474 7.77181 3.98164 7.65481 4.06568 7.56681C4.14972 7.47881 4.26445 7.42659 4.386 7.421H4.665C4.66429 7.41082 4.66357 7.40064 4.66284 7.39046C4.65843 7.32862 4.654 7.26668 4.654 7.204C4.654 7.16737 4.65677 7.131 4.65953 7.09475C4.66227 7.05875 4.665 7.02287 4.665 6.987H4.386C4.26445 6.9814 4.14972 6.92918 4.06568 6.84118C3.98164 6.75318 3.93474 6.63618 3.93474 6.5145C3.93474 6.39281 3.98164 6.27581 4.06568 6.18781C4.14972 6.09981 4.26445 6.04759 4.386 6.042H4.862C5.16255 5.21456 5.77354 4.5367 6.56544 4.15214C7.35733 3.76758 8.26787 3.70655 9.104 3.982C9.1631 4.0017 9.21773 4.03284 9.26479 4.07365C9.31185 4.11447 9.35041 4.16415 9.37827 4.21987C9.40612 4.27558 9.42274 4.33624 9.42715 4.39837C9.43157 4.46051 9.4237 4.5229 9.404 4.582C9.3843 4.64109 9.35316 4.69573 9.31235 4.74279C9.27153 4.78984 9.22185 4.8284 9.16613 4.85626C9.11042 4.88412 9.04976 4.90073 8.98763 4.90515C8.92549 4.90956 8.8631 4.9017 8.804 4.882C8.26149 4.69762 7.67092 4.71341 7.13905 4.92653C6.60717 5.13965 6.16909 5.53602 5.904 6.044H8.249C8.31288 6.04106 8.37669 6.0511 8.43658 6.07352C8.49647 6.09594 8.55118 6.13027 8.59743 6.17444C8.64367 6.2186 8.68048 6.27168 8.70563 6.33048C8.73078 6.38927 8.74374 6.45255 8.74374 6.5165C8.74374 6.58044 8.73078 6.64372 8.70563 6.70252C8.68048 6.76131 8.64367 6.81439 8.59743 6.85856C8.55118 6.90273 8.49647 6.93705 8.43658 6.95947C8.37669 6.98189 8.31288 6.99194 8.249 6.989H5.62C5.61776 7.01585 5.61427 7.04271 5.61078 7.06961C5.6049 7.11485 5.599 7.16023 5.599 7.206C5.599 7.25143 5.60481 7.29609 5.61065 7.34093C5.61419 7.36815 5.61774 7.39543 5.62 7.423H8.249C8.37056 7.42859 8.48528 7.48082 8.56932 7.56881C8.65336 7.65681 8.70026 7.77381 8.70026 7.8955C8.70026 8.01718 8.65336 8.13418 8.56932 8.22218C8.48528 8.31018 8.37056 8.3624 8.249 8.368H5.903C6.16809 8.87597 6.60617 9.27235 7.13804 9.48546C7.66992 9.69858 8.26049 9.71438 8.803 9.53C8.86209 9.51025 8.9245 9.50235 8.98665 9.50674C9.0488 9.51114 9.10947 9.52774 9.1652 9.55561C9.22092 9.58347 9.27061 9.62205 9.31142 9.66913ZM12.393 18.1742C13.3973 18.8454 14.578 19.2038 15.786 19.204C17.4056 19.2021 18.9584 18.5579 20.1037 17.4127C21.2489 16.2674 21.8932 14.7146 21.895 13.095C21.8948 11.887 21.5364 10.7063 20.8652 9.70195C20.194 8.69765 19.24 7.91493 18.124 7.45275C17.0079 6.99057 15.7799 6.8697 14.5951 7.10541C13.4104 7.34112 12.3222 7.92283 11.468 8.77699C10.6138 9.63115 10.0321 10.7194 9.79641 11.9041C9.5607 13.0889 9.68158 14.3169 10.1438 15.433C10.6059 16.549 11.3887 17.503 12.393 18.1742Z"
          fill="black"/>
    <path d="M16.3527 11.2593C16.2027 11.1093 15.9992 11.025 15.787 11.025L15.783 11.024C15.5708 11.024 15.3673 11.1083 15.2173 11.2583C15.0673 11.4083 14.983 11.6118 14.983 11.824C14.983 12.0362 15.0673 12.2397 15.2173 12.3897C15.3673 12.5397 15.5708 12.624 15.783 12.624C16.2047 12.6218 16.6129 12.7728 16.9316 13.049C17.2503 13.3251 17.4579 13.7077 17.5157 14.1254C17.5735 14.5431 17.4776 14.9676 17.2459 15.32C17.0142 15.6724 16.6625 15.9286 16.256 16.041V16.298C16.2504 16.4196 16.1982 16.5343 16.1102 16.6183C16.0222 16.7024 15.9052 16.7493 15.7835 16.7493C15.6618 16.7493 15.5448 16.7024 15.4568 16.6183C15.3688 16.5343 15.3166 16.4196 15.311 16.298V16.042C14.9459 15.9397 14.6242 15.7211 14.3946 15.4193C14.165 15.1176 14.0402 14.7492 14.039 14.37C14.0361 14.3061 14.0461 14.2423 14.0685 14.1824C14.0909 14.1225 14.1253 14.0678 14.1694 14.0216C14.2136 13.9753 14.2667 13.9385 14.3255 13.9134C14.3843 13.8882 14.4476 13.8753 14.5115 13.8753C14.5754 13.8753 14.6387 13.8882 14.6975 13.9134C14.7563 13.9385 14.8094 13.9753 14.8536 14.0216C14.8977 14.0678 14.9321 14.1225 14.9545 14.1824C14.9769 14.2423 14.9869 14.3061 14.984 14.37C14.984 14.5282 15.0309 14.6829 15.1188 14.8145C15.2067 14.946 15.3317 15.0485 15.4779 15.1091C15.624 15.1696 15.7849 15.1855 15.9401 15.1546C16.0953 15.1238 16.2378 15.0476 16.3497 14.9357C16.4616 14.8238 16.5378 14.6813 16.5686 14.5261C16.5995 14.3709 16.5837 14.21 16.5231 14.0638C16.4626 13.9177 16.36 13.7927 16.2285 13.7048C16.0969 13.6169 15.9422 13.57 15.784 13.57C15.3623 13.5722 14.9541 13.4212 14.6354 13.145C14.3167 12.8689 14.1091 12.4863 14.0513 12.0686C13.9935 11.6509 14.0894 11.2264 14.3211 10.874C14.5528 10.5216 14.9045 10.2654 15.311 10.153V9.897C15.3166 9.77544 15.3688 9.66072 15.4568 9.57668C15.5448 9.49263 15.6618 9.44574 15.7835 9.44574C15.9052 9.44574 16.0222 9.49263 16.1102 9.57668C16.1982 9.66072 16.2504 9.77544 16.256 9.897V10.153C16.6218 10.2546 16.9445 10.4729 17.1748 10.7747C17.4052 11.0765 17.5306 11.4453 17.532 11.825C17.5349 11.8889 17.5249 11.9527 17.5025 12.0126C17.4801 12.0725 17.4457 12.1272 17.4016 12.1734C17.3574 12.2197 17.3043 12.2565 17.2455 12.2816C17.1867 12.3068 17.1234 12.3197 17.0595 12.3197C16.9956 12.3197 16.9323 12.3068 16.8735 12.2816C16.8147 12.2565 16.7616 12.2197 16.7174 12.1734C16.6733 12.1272 16.6389 12.0725 16.6165 12.0126C16.5941 11.9527 16.5841 11.8889 16.587 11.825C16.587 11.6128 16.5027 11.4093 16.3527 11.2593Z"
          stroke="black" stroke-width="0.3"/>
    <path fill-rule="evenodd" clip-rule="evenodd"
          d="M22.1447 10.0244C22.6057 10.9825 22.8435 12.0327 22.84 13.096C22.8408 14.8813 22.1643 16.6004 20.9469 17.9063C19.7296 19.2122 18.0621 20.0077 16.2812 20.1321C14.5002 20.2564 12.7384 19.7005 11.3513 18.5765C9.96431 17.4525 9.05537 15.8441 8.808 14.076C7.42359 14.3996 5.97369 14.2971 4.64856 13.782C3.32342 13.2669 2.18495 12.3633 1.38254 11.1896C0.58012 10.016 0.151238 8.62718 0.152166 7.20545C0.153097 5.78372 0.583795 4.39549 1.38775 3.22289C2.1917 2.0503 3.33135 1.14814 4.65715 0.634771C5.98296 0.121406 7.43299 0.0208253 8.81698 0.346226C10.201 0.671627 11.4543 1.40781 12.4124 2.45817C13.3706 3.50854 13.9888 4.82402 14.186 6.232C15.2206 5.98655 16.2973 5.97894 17.3352 6.20974C18.3731 6.44054 19.3452 6.90374 20.1783 7.56448C21.0113 8.22522 21.6836 9.06629 22.1447 10.0244ZM9.31142 9.66913C9.35222 9.71621 9.38334 9.77087 9.403 9.83C9.43437 9.93176 9.42978 10.0412 9.39 10.14C10.1638 8.47577 11.5534 7.17688 13.266 6.517C13.1328 5.34519 12.6634 4.23697 11.9143 3.32608C11.1652 2.41519 10.1685 1.74055 9.04442 1.3836C7.92039 1.02664 6.71707 1.00261 5.57969 1.31442C4.4423 1.62622 3.41946 2.26053 2.6346 3.14079C1.84974 4.02106 1.33641 5.10965 1.15656 6.27521C0.976702 7.44076 1.13801 8.63346 1.62102 9.70937C2.10402 10.7853 2.88808 11.6984 3.87857 12.3386C4.86906 12.9787 6.02365 13.3185 7.203 13.317C7.71947 13.3163 8.23371 13.2491 8.733 13.117V13.095C8.73333 12.1059 8.94328 11.1281 9.349 10.226C9.29303 10.3195 9.20594 10.3903 9.103 10.426C8.26707 10.7035 7.35578 10.6435 6.5635 10.2586C5.77121 9.87378 5.16064 9.19463 4.862 8.366H4.386C4.26445 8.3604 4.14972 8.30818 4.06568 8.22018C3.98164 8.13218 3.93474 8.01518 3.93474 7.8935C3.93474 7.77181 3.98164 7.65481 4.06568 7.56681C4.14972 7.47881 4.26445 7.42659 4.386 7.421H4.665C4.66429 7.41082 4.66357 7.40064 4.66284 7.39046C4.65843 7.32862 4.654 7.26668 4.654 7.204C4.654 7.16737 4.65677 7.131 4.65953 7.09475C4.66227 7.05875 4.665 7.02287 4.665 6.987H4.386C4.26445 6.9814 4.14972 6.92918 4.06568 6.84118C3.98164 6.75318 3.93474 6.63618 3.93474 6.5145C3.93474 6.39281 3.98164 6.27581 4.06568 6.18781C4.14972 6.09981 4.26445 6.04759 4.386 6.042H4.862C5.16255 5.21456 5.77354 4.5367 6.56544 4.15214C7.35733 3.76758 8.26787 3.70655 9.104 3.982C9.1631 4.0017 9.21773 4.03284 9.26479 4.07365C9.31185 4.11447 9.35041 4.16415 9.37827 4.21987C9.40612 4.27558 9.42274 4.33624 9.42715 4.39837C9.43157 4.46051 9.4237 4.5229 9.404 4.582C9.3843 4.64109 9.35316 4.69573 9.31235 4.74279C9.27153 4.78984 9.22185 4.8284 9.16613 4.85626C9.11042 4.88412 9.04976 4.90073 8.98763 4.90515C8.92549 4.90956 8.8631 4.9017 8.804 4.882C8.26149 4.69762 7.67092 4.71341 7.13905 4.92653C6.60717 5.13965 6.16909 5.53602 5.904 6.044H8.249C8.31288 6.04106 8.37669 6.0511 8.43658 6.07352C8.49647 6.09594 8.55118 6.13027 8.59743 6.17444C8.64367 6.2186 8.68048 6.27168 8.70563 6.33048C8.73078 6.38927 8.74374 6.45255 8.74374 6.5165C8.74374 6.58044 8.73078 6.64372 8.70563 6.70252C8.68048 6.76131 8.64367 6.81439 8.59743 6.85856C8.55118 6.90273 8.49647 6.93705 8.43658 6.95947C8.37669 6.98189 8.31288 6.99194 8.249 6.989H5.62C5.61776 7.01585 5.61427 7.04271 5.61078 7.06961C5.6049 7.11485 5.599 7.16023 5.599 7.206C5.599 7.25143 5.60481 7.29609 5.61065 7.34093C5.61419 7.36815 5.61774 7.39543 5.62 7.423H8.249C8.37056 7.42859 8.48528 7.48082 8.56932 7.56881C8.65336 7.65681 8.70026 7.77381 8.70026 7.8955C8.70026 8.01718 8.65336 8.13418 8.56932 8.22218C8.48528 8.31018 8.37056 8.3624 8.249 8.368H5.903C6.16809 8.87597 6.60617 9.27235 7.13804 9.48546C7.66992 9.69858 8.26049 9.71438 8.803 9.53C8.86209 9.51025 8.9245 9.50235 8.98665 9.50674C9.0488 9.51114 9.10947 9.52774 9.1652 9.55561C9.22092 9.58347 9.27061 9.62205 9.31142 9.66913ZM12.393 18.1742C13.3973 18.8454 14.578 19.2038 15.786 19.204C17.4056 19.2021 18.9584 18.5579 20.1037 17.4127C21.2489 16.2674 21.8932 14.7146 21.895 13.095C21.8948 11.887 21.5364 10.7063 20.8652 9.70195C20.194 8.69765 19.24 7.91493 18.124 7.45275C17.0079 6.99057 15.7799 6.8697 14.5951 7.10541C13.4104 7.34112 12.3222 7.92283 11.468 8.77699C10.6138 9.63115 10.0321 10.7194 9.79641 11.9041C9.5607 13.0889 9.68158 14.3169 10.1438 15.433C10.6059 16.549 11.3887 17.503 12.393 18.1742Z"
          stroke="black" stroke-width="0.3"/>
</svg>
