<svg width="24" height="24" viewBox="0 0 24 24" fill="none" xmlns="http://www.w3.org/2000/svg">
    <path d="M3 3.5C2.17157 3.5 1.5 4.17157 1.5 5C1.5 5.82843 2.17157 6.5 3 6.5V3.5ZM21 6.5C21.8284 6.5 22.5 5.82843 22.5 5C22.5 4.17157 21.8284 3.5 21 3.5V6.5ZM3 17.5C2.17157 17.5 1.5 18.1716 1.5 19C1.5 19.8284 2.17157 20.5 3 20.5V17.5ZM9 20.5C9.82843 20.5 10.5 19.8284 10.5 19C10.5 18.1716 9.82843 17.5 9 17.5V20.5ZM3 10.5C2.17157 10.5 1.5 11.1716 1.5 12C1.5 12.8284 2.17157 13.5 3 13.5V10.5ZM15 13.5C15.8284 13.5 16.5 12.8284 16.5 12C16.5 11.1716 15.8284 10.5 15 10.5V13.5ZM3 6.5H21V3.5H3V6.5ZM3 20.5H9V17.5H3V20.5ZM3 13.5H15V10.5H3V13.5Z"
          fill="black"/>
</svg>
