<svg width="12" height="12" viewBox="0 0 12 12" fill="none" xmlns="http://www.w3.org/2000/svg">
    <g clip-path="url(#clip0)">
        <path d="M9.99917 9.50043C9.99917 9.77657 9.77531 10.0004 9.49917 10.0004H2.49917C2.22302 10.0004 1.99917 9.77657 1.99917 9.50043V2.50098C1.99917 2.22484 2.22302 2.00098 2.49917 2.00098H5.45857C5.59119 2.00098 5.71837 1.94829 5.81214 1.85451L6.81312 0.853399C7.12807 0.538406 6.90497 -0.000130079 6.45954 -0.000130079H0.499999C0.223857 -0.000130079 0 0.223728 0 0.49987V11.4999C0 11.776 0.223858 11.9999 0.5 11.9999H11.4983C11.7745 11.9999 11.9983 11.776 11.9983 11.4999V5.54117C11.9983 5.0957 11.4597 4.87263 11.1448 5.18764L10.1456 6.18695C10.0518 6.28071 9.99917 6.40788 9.99917 6.54048V9.50043Z"
              fill="#219653"/>
        <path d="M9.70571 0.353139C9.51044 0.157844 9.19382 0.157844 8.99855 0.353139L4.07003 5.28234C3.8748 5.4776 3.8748 5.79414 4.07003 5.9894L6.00981 7.92945C6.20508 8.12474 6.5217 8.12474 6.71696 7.92945L11.6455 3.00024C11.8407 2.80499 11.8407 2.48844 11.6455 2.29319L9.70571 0.353139Z"
              fill="#219653"/>
        <path d="M3.00343 6.35003C3.00096 6.35214 2.99955 6.35523 2.99956 6.35847L3.00496 8.49568C3.00565 8.77083 3.22854 8.99372 3.50369 8.99441L5.64171 8.99981C5.64425 8.99982 5.64671 8.99892 5.64863 8.99726C5.65332 8.99325 5.65359 8.98609 5.64923 8.98173L3.01847 6.35061C3.01438 6.34651 3.00782 6.34626 3.00343 6.35003Z"
              fill="#219653"/>
    </g>
    <defs>
        <clipPath id="clip0">
            <rect width="12" height="12" fill="white"/>
        </clipPath>
    </defs>
</svg>
