<svg width="24" height="24" viewBox="0 0 24 24" fill="none" xmlns="http://www.w3.org/2000/svg">
    <path
        d="M1 12L0.105573 11.5528C-0.0351909 11.8343 -0.0351909 12.1657 0.105573 12.4472L1 12ZM23 12L23.8944 12.4472C24.0352 12.1657 24.0352 11.8343 23.8944 11.5528L23 12ZM1 12C1.89443 12.4472 1.89429 12.4475 1.89417 12.4477C1.89415 12.4478 1.89404 12.448 1.894 12.4481C1.89391 12.4482 1.89389 12.4483 1.89392 12.4482C1.894 12.4481 1.89431 12.4475 1.89486 12.4464C1.89597 12.4442 1.89803 12.4401 1.90104 12.4343C1.90707 12.4226 1.9169 12.4036 1.93051 12.3779C1.95773 12.3264 2.00002 12.248 2.05712 12.1465C2.1714 11.9434 2.34452 11.6485 2.57441 11.2925C3.03543 10.5787 3.71817 9.6294 4.60454 8.68394C6.39552 6.77356 8.89951 5 12 5V3C8.10049 3 5.10448 5.22644 3.14546 7.31606C2.15683 8.3706 1.40207 9.42131 0.894336 10.2075C0.63985 10.6015 0.445792 10.9316 0.313971 11.166C0.248023 11.2832 0.19754 11.3767 0.162753 11.4424C0.145357 11.4753 0.131875 11.5013 0.122338 11.5198C0.117569 11.5291 0.113785 11.5365 0.11099 11.542C0.109592 11.5448 0.108442 11.5471 0.107539 11.5489C0.107087 11.5498 0.106698 11.5505 0.10637 11.5512C0.106206 11.5515 0.106007 11.5519 0.105925 11.5521C0.105741 11.5524 0.105573 11.5528 1 12ZM12 5C15.1005 5 17.6045 6.77356 19.3955 8.68394C20.2818 9.6294 20.9646 10.5787 21.4256 11.2925C21.6555 11.6485 21.8286 11.9434 21.9429 12.1465C22 12.248 22.0423 12.3264 22.0695 12.3779C22.0831 12.4036 22.0929 12.4226 22.099 12.4343C22.102 12.4401 22.104 12.4442 22.1051 12.4464C22.1057 12.4475 22.106 12.4481 22.1061 12.4482C22.1061 12.4483 22.1061 12.4482 22.106 12.4481C22.106 12.448 22.1059 12.4478 22.1058 12.4477C22.1057 12.4475 22.1056 12.4472 23 12C23.8944 11.5528 23.8943 11.5524 23.8941 11.5521C23.894 11.5519 23.8938 11.5515 23.8936 11.5512C23.8933 11.5505 23.8929 11.5498 23.8925 11.5489C23.8916 11.5471 23.8904 11.5448 23.889 11.542C23.8862 11.5365 23.8824 11.5291 23.8777 11.5198C23.8681 11.5013 23.8546 11.4753 23.8372 11.4424C23.8025 11.3767 23.752 11.2832 23.686 11.166C23.5542 10.9316 23.3601 10.6015 23.1057 10.2075C22.5979 9.42131 21.8432 8.3706 20.8545 7.31606C18.8955 5.22644 15.8995 3 12 3V5ZM23 12C22.1056 11.5528 22.1057 11.5525 22.1058 11.5523C22.1059 11.5522 22.106 11.552 22.106 11.5519C22.1061 11.5518 22.1061 11.5517 22.1061 11.5518C22.106 11.5519 22.1057 11.5525 22.1051 11.5536C22.104 11.5558 22.102 11.5599 22.099 11.5657C22.0929 11.5774 22.0831 11.5964 22.0695 11.6221C22.0423 11.6736 22 11.752 21.9429 11.8535C21.8286 12.0566 21.6555 12.3515 21.4256 12.7075C20.9646 13.4213 20.2818 14.3706 19.3955 15.3161C17.6045 17.2264 15.1005 19 12 19V21C15.8995 21 18.8955 18.7736 20.8545 16.6839C21.8432 15.6294 22.5979 14.5787 23.1057 13.7925C23.3601 13.3985 23.5542 13.0684 23.686 12.834C23.752 12.7168 23.8025 12.6233 23.8372 12.5576C23.8546 12.5247 23.8681 12.4987 23.8777 12.4802C23.8824 12.4709 23.8862 12.4635 23.889 12.458C23.8904 12.4552 23.8916 12.4529 23.8925 12.4511C23.8929 12.4502 23.8933 12.4495 23.8936 12.4488C23.8938 12.4485 23.894 12.4481 23.8941 12.4479C23.8943 12.4476 23.8944 12.4472 23 12ZM12 19C8.89951 19 6.39552 17.2264 4.60454 15.3161C3.71817 14.3706 3.03543 13.4213 2.57441 12.7075C2.34452 12.3515 2.1714 12.0566 2.05712 11.8535C2.00002 11.752 1.95773 11.6736 1.93051 11.6221C1.9169 11.5964 1.90707 11.5774 1.90104 11.5657C1.89803 11.5599 1.89597 11.5558 1.89486 11.5536C1.89431 11.5525 1.894 11.5519 1.89392 11.5518C1.89389 11.5517 1.89391 11.5518 1.894 11.5519C1.89404 11.552 1.89415 11.5522 1.89417 11.5523C1.89429 11.5525 1.89443 11.5528 1 12C0.105573 12.4472 0.105741 12.4476 0.105925 12.4479C0.106007 12.4481 0.106206 12.4485 0.10637 12.4488C0.106698 12.4495 0.107087 12.4502 0.107539 12.4511C0.108442 12.4529 0.109592 12.4552 0.11099 12.458C0.113785 12.4635 0.117569 12.4709 0.122338 12.4802C0.131875 12.4987 0.145357 12.5247 0.162753 12.5576C0.19754 12.6233 0.248023 12.7168 0.313971 12.834C0.445792 13.0684 0.63985 13.3985 0.894336 13.7925C1.40207 14.5787 2.15683 15.6294 3.14546 16.6839C5.10448 18.7736 8.10049 21 12 21V19ZM14 12C14 13.1046 13.1046 14 12 14V16C14.2091 16 16 14.2091 16 12H14ZM12 14C10.8954 14 10 13.1046 10 12H8C8 14.2091 9.79086 16 12 16V14ZM10 12C10 10.8954 10.8954 10 12 10V8C9.79086 8 8 9.79086 8 12H10ZM12 10C13.1046 10 14 10.8954 14 12H16C16 9.79086 14.2091 8 12 8V10Z"
        fill="#78838E" />
</svg>
