<svg width="24" height="24" viewBox="0 0 24 24" fill="none" xmlns="http://www.w3.org/2000/svg">
    <path
        d="M17.94 17.94L18.5462 18.7353C18.7757 18.5604 18.9184 18.2949 18.9378 18.007C18.9571 17.7191 18.8511 17.4369 18.6471 17.2329L17.94 17.94ZM12 20V21C12.0054 21 12.0109 21 12.0163 20.9999L12 20ZM1 12L0.118844 11.5272C-0.0347895 11.8135 -0.0397388 12.1566 0.105573 12.4472L1 12ZM6.06 6.06L6.76711 5.35289C6.41289 4.99868 5.85123 4.9612 5.4531 5.26522L6.06 6.06ZM9.9 4.24L9.67209 3.26632C9.31875 3.34902 9.03796 3.61665 8.93838 3.9656C8.83881 4.31456 8.93609 4.69007 9.19257 4.94678L9.9 4.24ZM12 4L11.9977 5H12V4ZM23 12L23.8819 12.4714C24.0348 12.1854 24.0395 11.8429 23.8944 11.5528L23 12ZM20.84 15.19L20.1326 15.8968C20.3306 16.095 20.6027 16.2011 20.8827 16.1891C21.1627 16.1771 21.4247 16.0482 21.6052 15.8338L20.84 15.19ZM14.8516 14.8017C15.2281 14.3977 15.2058 13.7649 14.8017 13.3884C14.3977 13.0119 13.7649 13.0342 13.3884 13.4383L14.8516 14.8017ZM10.5617 10.6116C10.9658 10.2351 10.9881 9.60234 10.6116 9.19828C10.2351 8.79422 9.60234 8.77188 9.19828 9.14839L10.5617 10.6116ZM1.70711 0.292893C1.31658 -0.0976311 0.683418 -0.0976311 0.292893 0.292893C-0.0976311 0.683418 -0.0976311 1.31658 0.292893 1.70711L1.70711 0.292893ZM22.2929 23.7071C22.6834 24.0976 23.3166 24.0976 23.7071 23.7071C24.0976 23.3166 24.0976 22.6834 23.7071 22.2929L22.2929 23.7071ZM17.3338 17.1447C15.7941 18.3183 13.9193 18.9685 11.9837 19.0001L12.0163 20.9999C14.3789 20.9612 16.6671 20.1677 18.5462 18.7353L17.3338 17.1447ZM12 19C8.89951 19 6.39552 17.2264 4.60454 15.3161C3.71817 14.3706 3.03543 13.4213 2.57441 12.7075C2.34452 12.3515 2.1714 12.0566 2.05712 11.8535C2.00002 11.752 1.95773 11.6736 1.93051 11.6221C1.9169 11.5964 1.90707 11.5774 1.90104 11.5657C1.89803 11.5599 1.89597 11.5558 1.89486 11.5536C1.89431 11.5525 1.894 11.5519 1.89392 11.5518C1.89389 11.5517 1.89391 11.5518 1.894 11.5519C1.89404 11.552 1.89415 11.5522 1.89417 11.5523C1.89429 11.5525 1.89443 11.5528 1 12C0.105573 12.4472 0.105741 12.4476 0.105925 12.4479C0.106007 12.4481 0.106206 12.4485 0.10637 12.4488C0.106698 12.4495 0.107087 12.4502 0.107539 12.4511C0.108442 12.4529 0.109592 12.4552 0.11099 12.458C0.113785 12.4635 0.117569 12.4709 0.122338 12.4802C0.131875 12.4987 0.145357 12.5247 0.162753 12.5576C0.19754 12.6233 0.248023 12.7168 0.313971 12.834C0.445792 13.0684 0.63985 13.3985 0.894336 13.7925C1.40207 14.5787 2.15683 15.6294 3.14546 16.6839C5.10448 18.7736 8.10049 21 12 21V19ZM1.88116 12.4728C3.05763 10.2804 4.68936 8.36485 6.6669 6.85478L5.4531 5.26522C3.24891 6.94837 1.43015 9.08343 0.118844 11.5272L1.88116 12.4728ZM5.35289 6.76711L17.2329 18.6471L18.6471 17.2329L6.76711 5.35289L5.35289 6.76711ZM10.1279 5.21368C10.7408 5.07023 11.3682 4.99852 11.9977 5L12.0023 3C11.2179 2.99816 10.4359 3.08753 9.67209 3.26632L10.1279 5.21368ZM12 5C15.1005 5 17.6045 6.77356 19.3955 8.68394C20.2818 9.6294 20.9646 10.5787 21.4256 11.2925C21.6555 11.6485 21.8286 11.9434 21.9429 12.1465C22 12.248 22.0423 12.3264 22.0695 12.3779C22.0831 12.4036 22.0929 12.4226 22.099 12.4343C22.102 12.4401 22.104 12.4442 22.1051 12.4464C22.1057 12.4475 22.106 12.4481 22.1061 12.4482C22.1061 12.4483 22.1061 12.4482 22.106 12.4481C22.106 12.448 22.1059 12.4478 22.1058 12.4477C22.1057 12.4475 22.1056 12.4472 23 12C23.8944 11.5528 23.8943 11.5524 23.8941 11.5521C23.894 11.5519 23.8938 11.5515 23.8936 11.5512C23.8933 11.5505 23.8929 11.5498 23.8925 11.5489C23.8916 11.5471 23.8904 11.5448 23.889 11.542C23.8862 11.5365 23.8824 11.5291 23.8777 11.5198C23.8681 11.5013 23.8546 11.4753 23.8372 11.4424C23.8025 11.3767 23.752 11.2832 23.686 11.166C23.5542 10.9316 23.3601 10.6015 23.1057 10.2075C22.5979 9.42131 21.8432 8.3706 20.8545 7.31606C18.8955 5.22644 15.8995 3 12 3V5ZM22.1181 11.5286C21.5439 12.6028 20.8591 13.6141 20.0748 14.5462L21.6052 15.8338C22.479 14.7953 23.2421 13.6684 23.8819 12.4714L22.1181 11.5286ZM21.5474 14.4832L10.6074 3.53322L9.19257 4.94678L20.1326 15.8968L21.5474 14.4832ZM13.3884 13.4383C13.2053 13.6348 12.9845 13.7924 12.7392 13.9017L13.5531 15.7286C14.0438 15.5099 14.4854 15.1947 14.8516 14.8017L13.3884 13.4383ZM12.7392 13.9017C12.4938 14.011 12.229 14.0698 11.9604 14.0745L11.9957 16.0742C12.5328 16.0647 13.0625 15.9472 13.5531 15.7286L12.7392 13.9017ZM11.9604 14.0745C11.6919 14.0793 11.4252 14.0299 11.1761 13.9293L10.4271 15.7837C10.9252 15.9849 11.4587 16.0837 11.9957 16.0742L11.9604 14.0745ZM11.1761 13.9293C10.9271 13.8287 10.7009 13.679 10.511 13.489L9.09674 14.9033C9.47657 15.2831 9.92902 15.5825 10.4271 15.7837L11.1761 13.9293ZM10.511 13.489C10.321 13.2991 10.1713 13.0729 10.0707 12.8239L8.21629 13.5729C8.41747 14.071 8.71691 14.5234 9.09674 14.9033L10.511 13.489ZM10.0707 12.8239C9.97014 12.5748 9.92074 12.3081 9.92548 12.0396L7.92579 12.0043C7.91631 12.5414 8.01511 13.0748 8.21629 13.5729L10.0707 12.8239ZM9.92548 12.0396C9.93022 11.771 9.98899 11.5062 10.0983 11.2608L8.27145 10.4469C8.05282 10.9375 7.93527 11.4672 7.92579 12.0043L9.92548 12.0396ZM10.0983 11.2608C10.2076 11.0155 10.3652 10.7947 10.5617 10.6116L9.19828 9.14839C8.80528 9.51459 8.49007 9.95619 8.27145 10.4469L10.0983 11.2608ZM0.292893 1.70711L22.2929 23.7071L23.7071 22.2929L1.70711 0.292893L0.292893 1.70711Z"
        fill="#78838E" />
</svg>
