<svg width="24" height="24" viewBox="0 0 24 24" fill="none" xmlns="http://www.w3.org/2000/svg">
    <path d="M19.3169 1.81C18.2059 0.543 16.1969 0 13.6269 0H6.1679C5.6429 0 5.1949 0.382 5.1129 0.901L2.0089 20.598C1.9539 20.947 2.1919 21.275 2.5419 21.33C2.5749 21.335 2.6089 21.338 2.6419 21.338H7.2469L8.4029 14.003L8.3669 14.233C8.4479 13.715 8.8939 13.333 9.4179 13.332H11.6059C15.9049 13.332 19.2699 11.586 20.2529 6.535C20.2819 6.386 20.3069 6.24 20.3289 6.098C20.6209 4.231 20.3269 2.961 19.3169 1.81Z"
          fill="#003087"/>
    <path d="M19.3169 1.81C18.2059 0.543 16.1969 0 13.6269 0H6.1679C5.6429 0 5.1949 0.382 5.1129 0.901L2.0089 20.598C1.9539 20.947 2.1919 21.275 2.5419 21.33C2.5749 21.335 2.6089 21.338 2.6419 21.338H7.2469L8.4029 14.003L8.3669 14.233C8.4479 13.715 8.8939 13.333 9.4179 13.332H11.6059C15.9049 13.332 19.2699 11.586 20.2529 6.535C20.2819 6.386 20.3069 6.24 20.3289 6.098C20.6209 4.231 20.3269 2.961 19.3169 1.81Z"
          fill="#003087"/>
    <path d="M9.6439 6.123C9.7159 5.669 10.1069 5.335 10.5659 5.335H16.4129C17.1049 5.335 17.7509 5.38 18.3419 5.474C18.6649 5.526 18.9839 5.597 19.2979 5.688C19.6549 5.788 20.0009 5.926 20.3289 6.098C20.6219 4.231 20.3269 2.962 19.3169 1.81C18.2049 0.544 16.1969 0 13.6269 0H6.1679C5.6429 0 5.1959 0.382 5.1139 0.901L2.0079 20.597C1.9529 20.946 2.1909 21.274 2.5399 21.329C2.5729 21.334 2.6069 21.337 2.6399 21.337H7.2449L9.6439 6.123Z"
          fill="#003087"/>
    <path d="M20.3289 6.098C20.3059 6.244 20.2809 6.39 20.2529 6.535C19.2699 11.586 15.9049 13.332 11.6059 13.332H9.4159C8.8919 13.332 8.4459 13.715 8.3659 14.233L7.2449 21.337L6.9259 23.353C6.8779 23.659 7.0859 23.946 7.3919 23.994C7.4209 23.998 7.4509 24 7.4799 24H11.3619C11.8209 24 12.2119 23.665 12.2839 23.212L12.3219 23.014L13.0539 18.378L13.0999 18.122C13.1719 17.668 13.5629 17.334 14.0229 17.334H14.6039C18.3639 17.334 21.3079 15.807 22.1689 11.388C22.5269 9.542 22.3419 8 21.3919 6.918C21.0899 6.582 20.7299 6.304 20.3289 6.098Z"
          fill="#009CDE"/>
    <path d="M19.2979 5.688C19.1479 5.644 18.9939 5.604 18.8349 5.569C18.6759 5.534 18.5109 5.503 18.3419 5.476C17.7509 5.38 17.1059 5.335 16.4129 5.335H10.5659C10.1059 5.334 9.7149 5.668 9.6439 6.123L8.4009 14.004L8.3659 14.233C8.4459 13.715 8.8919 13.333 9.4159 13.332H11.6039C15.9029 13.332 19.2679 11.586 20.2509 6.535C20.2799 6.386 20.3049 6.241 20.3269 6.098C20.0669 5.962 19.7969 5.848 19.5179 5.757C19.4479 5.732 19.3729 5.71 19.2979 5.688Z"
          fill="#012169"/>
</svg>
