<svg width="20" height="20" viewBox="0 0 20 20" fill="none" xmlns="http://www.w3.org/2000/svg">
    <path d="M18.12 16.5615C16.9538 14.5529 15.0862 13.0463 12.8763 12.3316C13.935 11.7016 14.7576 10.7416 15.2178 9.59883C15.678 8.45608 15.7503 7.19386 15.4236 6.00603C15.097 4.8182 14.3894 3.77045 13.4096 3.02372C12.4298 2.27698 11.2319 1.87256 9.99998 1.87256C8.76805 1.87256 7.57019 2.27698 6.59038 3.02372C5.61057 3.77045 4.90299 4.8182 4.57633 6.00603C4.24967 7.19386 4.32199 8.45608 4.78219 9.59883C5.24238 10.7416 6.065 11.7016 7.1237 12.3316C4.91386 13.0463 3.04627 14.5528 1.88005 16.5613C1.82508 16.6563 1.7961 16.7641 1.79602 16.8739C1.79594 16.9836 1.82477 17.0915 1.87961 17.1866C1.93444 17.2816 2.01335 17.3606 2.10839 17.4155C2.20343 17.4704 2.31126 17.4993 2.42101 17.4993L17.5791 17.4995C17.6888 17.4995 17.7966 17.4706 17.8917 17.4157C17.9867 17.3608 18.0657 17.2818 18.1205 17.1867C18.1753 17.0916 18.2042 16.9838 18.2041 16.874C18.204 16.7643 18.175 16.6565 18.12 16.5615L18.12 16.5615Z"
          fill="white"/>
</svg>
