<svg width="24" height="24" viewBox="0 0 24 24" fill="none" xmlns="http://www.w3.org/2000/svg">
    <path d="M14.54 4.71L21.41 11.58C21.5416 11.7081 21.6543 11.8551 21.7448 12.0162C21.9087 12.3079 22 12.6456 22 13C22 13.3562 21.9077 13.6914 21.7449 13.9812C21.6563 14.1389 21.5469 14.2831 21.42 14.41L16.04 19.79L15.0401 18.7901L20.75 13L13.54 5.71L14.54 4.71Z"
          fill="#929CA6"/>
    <path fill-rule="evenodd" clip-rule="evenodd"
          d="M5.5 9C6.32843 9 7 8.32843 7 7.5C7 6.67157 6.32843 6 5.5 6C4.67157 6 4 6.67157 4 7.5C4 8.32843 4.67157 9 5.5 9ZM5 7.5C5 7.22386 5.22386 7 5.5 7C5.77614 7 6 7.22386 6 7.5C6 7.77614 5.77614 8 5.5 8C5.22386 8 5 7.77614 5 7.5Z"
          fill="#929CA6"/>
    <path fill-rule="evenodd" clip-rule="evenodd"
          d="M17.41 11.58C17.579 11.749 17.7194 11.9489 17.8207 12.1714C17.9353 12.4227 18 12.7029 18 13C18 13.2994 17.9348 13.5839 17.8158 13.8391C17.7161 14.0528 17.5786 14.2459 17.41 14.41L12.41 19.41C12.05 19.77 11.55 20 11 20C10.45 20 9.95 19.78 9.58 19.41L2.59 12.42C2.22 12.05 2 11.55 2 11V6C2 4.89 2.89 4 4 4H9C9.55 4 10.05 4.22 10.41 4.58L17.41 11.58ZM16.364 13.3349L16.3566 13.3421L11.3493 18.3493C11.2507 18.448 11.1248 18.5 11 18.5C10.8618 18.5 10.7394 18.4481 10.6407 18.3493L3.65066 11.3593C3.5519 11.2606 3.5 11.1382 3.5 11V6C3.5 5.71843 3.71843 5.5 4 5.5H9C9.14367 5.5 9.26457 5.55589 9.34934 5.64066L16.3493 12.6407C16.445 12.7363 16.5 12.8612 16.5 13C16.5 13.1417 16.4461 13.255 16.364 13.3349Z"
          fill="#929CA6"/>
</svg>
