<svg width="24" height="24" viewBox="0 0 24 24" fill="none" xmlns="http://www.w3.org/2000/svg">
    <path d="M4.33459 11.2638L11.8346 4.64616C11.9291 4.56277 12.0709 4.56278 12.1654 4.64616L12.6543 4.09204L12.1654 4.64616L19.6654 11.2638C19.7192 11.3113 19.75 11.3795 19.75 11.4513V20C19.75 20.1381 19.6381 20.25 19.5 20.25H15C14.8619 20.25 14.75 20.1381 14.75 20V15.5C14.75 14.5335 13.9665 13.75 13 13.75H11C10.0335 13.75 9.25 14.5335 9.25 15.5V20C9.25 20.1381 9.13807 20.25 9 20.25H7H4.5C4.36193 20.25 4.25 20.1381 4.25 20V11.4513C4.25 11.3795 4.28081 11.3113 4.33459 11.2638Z"
          stroke="#929CA6" stroke-width="1.5"/>
</svg>
