<svg width="24" height="24" viewBox="0 0 24 24" fill="none" xmlns="http://www.w3.org/2000/svg">
    <path
            d="M10 12.25H4C3.86193 12.25 3.75 12.1381 3.75 12V4C3.75 3.86193 3.86193 3.75 4 3.75H10C10.1381 3.75 10.25 3.86193 10.25 4V12C10.25 12.1381 10.1381 12.25 10 12.25ZM10 20.25H4C3.86193 20.25 3.75 20.1381 3.75 20V16C3.75 15.8619 3.86193 15.75 4 15.75H10C10.1381 15.75 10.25 15.8619 10.25 16V20C10.25 20.1381 10.1381 20.25 10 20.25ZM20 20.25H14C13.8619 20.25 13.75 20.1381 13.75 20V12C13.75 11.8619 13.8619 11.75 14 11.75H20C20.1381 11.75 20.25 11.8619 20.25 12V20C20.25 20.1381 20.1381 20.25 20 20.25ZM13.75 8V4C13.75 3.86193 13.8619 3.75 14 3.75H20C20.1381 3.75 20.25 3.86193 20.25 4V8C20.25 8.13807 20.1381 8.25 20 8.25H14C13.8619 8.25 13.75 8.13807 13.75 8Z"
            stroke="#929CA6" stroke-width="1.5" stroke-linejoin="round"/>
</svg>
