<svg width="24" height="24" viewBox="0 0 24 24" fill="none" xmlns="http://www.w3.org/2000/svg">
    <mask id="path-1-inside-1_205_46" fill="white">
        <path fill-rule="evenodd" clip-rule="evenodd"
              d="M18 13C18 12.44 17.77 11.94 17.41 11.58L10.41 4.58C10.05 4.22 9.55 4 9 4H4C2.89 4 2 4.89 2 6V11C2 11.55 2.22 12.05 2.59 12.42L9.58 19.41C9.95 19.78 10.45 20 11 20C11.55 20 12.05 19.77 12.41 19.41L17.41 14.41C17.78 14.05 18 13.55 18 13ZM14.54 4.71L13.54 5.71L20.75 13L15.04 18.79L16.04 19.79L21.42 14.41C21.78 14.05 22 13.55 22 13C22 12.45 21.78 11.94 21.41 11.58L14.54 4.71ZM6 7C6 7.55228 5.55228 8 5 8C4.44772 8 4 7.55228 4 7C4 6.44772 4.44772 6 5 6C5.55228 6 6 6.44772 6 7Z"/>
    </mask>
    <path fill-rule="evenodd" clip-rule="evenodd"
          d="M18 13C18 12.44 17.77 11.94 17.41 11.58L10.41 4.58C10.05 4.22 9.55 4 9 4H4C2.89 4 2 4.89 2 6V11C2 11.55 2.22 12.05 2.59 12.42L9.58 19.41C9.95 19.78 10.45 20 11 20C11.55 20 12.05 19.77 12.41 19.41L17.41 14.41C17.78 14.05 18 13.55 18 13ZM14.54 4.71L13.54 5.71L20.75 13L15.04 18.79L16.04 19.79L21.42 14.41C21.78 14.05 22 13.55 22 13C22 12.45 21.78 11.94 21.41 11.58L14.54 4.71ZM6 7C6 7.55228 5.55228 8 5 8C4.44772 8 4 7.55228 4 7C4 6.44772 4.44772 6 5 6C5.55228 6 6 6.44772 6 7Z"
          fill="#E09D2B"/>
    <path d="M17.41 11.58L18.4707 10.5193L18.4707 10.5193L17.41 11.58ZM10.41 4.58L9.34934 5.64066L9.34934 5.64066L10.41 4.58ZM2.59 12.42L3.65066 11.3593L3.65066 11.3593L2.59 12.42ZM9.58 19.41L10.6407 18.3493L9.58 19.41ZM17.41 14.41L16.364 13.3349L16.3566 13.3421L16.3493 13.3493L17.41 14.41ZM13.54 5.71L12.4793 4.64934L11.4245 5.70416L12.4735 6.76479L13.54 5.71ZM14.54 4.71L15.6007 3.64934L14.54 2.58868L13.4793 3.64934L14.54 4.71ZM20.75 13L21.818 14.0533L22.8582 12.9985L21.8165 11.9452L20.75 13ZM15.04 18.79L13.972 17.7367L12.926 18.7974L13.9793 19.8507L15.04 18.79ZM16.04 19.79L14.9793 20.8507L16.04 21.9113L17.1007 20.8507L16.04 19.79ZM21.42 14.41L20.3593 13.3493L20.3593 13.3493L21.42 14.41ZM21.41 11.58L20.3493 12.6407L20.3566 12.6479L20.364 12.6551L21.41 11.58ZM16.3493 12.6407C16.445 12.7363 16.5 12.8612 16.5 13H19.5C19.5 12.0188 19.095 11.1437 18.4707 10.5193L16.3493 12.6407ZM9.34934 5.64066L16.3493 12.6407L18.4707 10.5193L11.4707 3.51934L9.34934 5.64066ZM9 5.5C9.14367 5.5 9.26457 5.55589 9.34934 5.64066L11.4707 3.51934C10.8354 2.88411 9.95633 2.5 9 2.5V5.5ZM4 5.5H9V2.5H4V5.5ZM3.5 6C3.5 5.71843 3.71843 5.5 4 5.5V2.5C2.06157 2.5 0.5 4.06157 0.5 6H3.5ZM3.5 11V6H0.5V11H3.5ZM3.65066 11.3593C3.5519 11.2606 3.5 11.1382 3.5 11H0.5C0.5 11.9618 0.888096 12.8394 1.52934 13.4807L3.65066 11.3593ZM10.6407 18.3493L3.65066 11.3593L1.52934 13.4807L8.51934 20.4707L10.6407 18.3493ZM11 18.5C10.8618 18.5 10.7394 18.4481 10.6407 18.3493L8.51934 20.4707C9.16058 21.1119 10.0382 21.5 11 21.5V18.5ZM11.3493 18.3493C11.2507 18.448 11.1248 18.5 11 18.5V21.5C11.9752 21.5 12.8493 21.092 13.4707 20.4707L11.3493 18.3493ZM16.3493 13.3493L11.3493 18.3493L13.4707 20.4707L18.4707 15.4707L16.3493 13.3493ZM16.5 13C16.5 13.1417 16.4461 13.255 16.364 13.3349L18.456 15.4851C19.1139 14.845 19.5 13.9583 19.5 13H16.5ZM14.6007 6.77066L15.6007 5.77066L13.4793 3.64934L12.4793 4.64934L14.6007 6.77066ZM21.8165 11.9452L14.6065 4.65521L12.4735 6.76479L19.6835 14.0548L21.8165 11.9452ZM16.108 19.8433L21.818 14.0533L19.682 11.9467L13.972 17.7367L16.108 19.8433ZM17.1007 18.7293L16.1007 17.7293L13.9793 19.8507L14.9793 20.8507L17.1007 18.7293ZM20.3593 13.3493L14.9793 18.7293L17.1007 20.8507L22.4807 15.4707L20.3593 13.3493ZM20.5 13C20.5 13.1437 20.4441 13.2646 20.3593 13.3493L22.4807 15.4707C23.1159 14.8354 23.5 13.9563 23.5 13H20.5ZM20.364 12.6551C20.4403 12.7294 20.5 12.8502 20.5 13H23.5C23.5 12.0498 23.1197 11.1506 22.456 10.5049L20.364 12.6551ZM13.4793 5.77066L20.3493 12.6407L22.4707 10.5193L15.6007 3.64934L13.4793 5.77066ZM5 9.5C6.38071 9.5 7.5 8.38071 7.5 7H4.5C4.5 6.72386 4.72386 6.5 5 6.5V9.5ZM2.5 7C2.5 8.38071 3.61929 9.5 5 9.5V6.5C5.27614 6.5 5.5 6.72386 5.5 7H2.5ZM5 4.5C3.61929 4.5 2.5 5.61929 2.5 7H5.5C5.5 7.27614 5.27614 7.5 5 7.5V4.5ZM7.5 7C7.5 5.61929 6.38071 4.5 5 4.5V7.5C4.72386 7.5 4.5 7.27614 4.5 7H7.5Z"
          fill="#E09D2B" mask="url(#path-1-inside-1_205_46)"/>
</svg>
